<svg version="1.2" xmlns="http://www.w3.org/2000/svg" viewBox="0 0 201 200" width="201" height="200">
	<title>vivamed-svg</title>
	<style>
		.s0 { fill: #00838f } 
	</style>
	<g>
		<path fill-rule="evenodd" class="s0" d="m61.4 62.5c21.5 0 40.9 8.8 54.9 23 3.5-7.6 5.5-16.1 5.5-25.1 0-33.3-27-60.4-60.4-60.4-33.3 0-60.4 27.1-60.4 60.4 0 9 2 17.5 5.5 25.1 14-14.2 33.4-23 54.9-23zm79.2-62.5c-9 0-17.5 2-25.2 5.5 14.3 14 23.1 33.4 23.1 54.9 0 21.5-8.8 40.9-23.1 54.9 7.7 3.5 16.2 5.5 25.2 5.5 33.3 0 60.4-27 60.4-60.4 0-33.3-27.1-60.4-60.4-60.4zm-77.1 139.6c0-21.5 8.8-40.9 23-54.9-7.6-3.5-16.1-5.5-25.1-5.5-33.3 0-60.4 27-60.4 60.4 0 33.4 27.1 60.4 60.4 60.4 9 0 17.5-2 25.1-5.5-14.2-14-23-33.4-23-54.9zm77.1-2.1c-21.5 0-40.9-8.8-54.9-23.1-3.5 7.7-5.5 16.2-5.5 25.2 0 33.4 27 60.4 60.4 60.4 33.4 0 60.4-27.1 60.4-60.4 0-9-2-17.5-5.5-25.2-14 14.3-33.4 23.1-54.9 23.1z"/>
	</g>
</svg>